HIERARCHY
ROOT Hips
{
	OFFSET -14.64140 90.27770 -84.91600
	CHANNELS 6 Xposition Yposition Zposition Zrotation Xrotation Yrotation
	JOINT Spine
	{
		OFFSET 0.00000 13.20850 -1.60436
		CHANNELS 3 Zrotation Xrotation Yrotation
		JOINT Spine1
		{
			OFFSET 0.00000 8.61716 0.00000
			CHANNELS 3 Zrotation Xrotation Yrotation
			JOINT Spine2
			{
				OFFSET 0.00000 8.61717 0.00000
				CHANNELS 3 Zrotation Xrotation Yrotation
				JOINT Spine3
				{
					OFFSET 0.00000 8.61717 0.00000
					CHANNELS 3 Zrotation Xrotation Yrotation
					JOINT Neck
					{
						OFFSET 0.00000 11.07920 1.10792
						CHANNELS 3 Zrotation Xrotation Yrotation
						JOINT Neck1
						{
							OFFSET 0.00000 7.08032 0.00000
							CHANNELS 3 Zrotation Xrotation Yrotation
							JOINT Head
							{
								OFFSET 0.00000 7.08031 0.00000
								CHANNELS 3 Zrotation Xrotation Yrotation
								End site
								{
									OFFSET 0.00000 0.00000 0.00000
								}
							}
						}
					}
					JOINT RightShoulder
					{
						OFFSET -0.01000 7.91373 5.19711
						CHANNELS 3 Zrotation Xrotation Yrotation
						JOINT RightArm
						{
							OFFSET -18.41580 0.00000 0.00000
							CHANNELS 3 Zrotation Xrotation Yrotation
							JOINT RightForeArm
							{
								OFFSET -29.11090 0.00000 0.00000
								CHANNELS 3 Zrotation Xrotation Yrotation
								JOINT RightHand
								{
									OFFSET -24.65040 0.00000 0.00000
									CHANNELS 3 Zrotation Xrotation Yrotation
									JOINT RightHandThumb1
									{
										OFFSET -5.35114 -0.85590 3.97906
										CHANNELS 3 Zrotation Xrotation Yrotation
										JOINT RightHandThumb2
										{
											OFFSET -4.52789 0.00000 0.00000
											CHANNELS 3 Zrotation Xrotation Yrotation
											JOINT RightHandThumb3
											{
												OFFSET -2.46976 0.00000 0.00000
												CHANNELS 3 Zrotation Xrotation Yrotation
												End site
												{
													OFFSET 0.00000 0.00000 0.00000
												}
											}
										}
									}
									JOINT RightHandIndex1
									{
										OFFSET -14.26970 0.00000 2.88139
										CHANNELS 3 Zrotation Xrotation Yrotation
										JOINT RightHandIndex2
										{
											OFFSET -5.48836 0.00000 0.00000
											CHANNELS 3 Zrotation Xrotation Yrotation
											JOINT RightHandIndex3
											{
												OFFSET -3.01859 0.00000 0.00000
												CHANNELS 3 Zrotation Xrotation Yrotation
												End site
												{
													OFFSET 0.00000 0.00000 0.00000
												}
											}
										}
									}
									JOINT RightHandMiddle1
									{
										OFFSET -14.26970 0.00000 -0.09147
										CHANNELS 3 Zrotation Xrotation Yrotation
										JOINT RightHandMiddle2
										{
											OFFSET -6.17441 0.00000 0.00000
											CHANNELS 3 Zrotation Xrotation Yrotation
											JOINT RightHandMiddle3
											{
												OFFSET -3.56743 0.00000 0.00000
												CHANNELS 3 Zrotation Xrotation Yrotation
												End site
												{
													OFFSET 0.00000 0.00000 0.00000
												}
											}
										}
									}
									JOINT RightHandRing1
									{
										OFFSET -12.69180 0.00000 -3.06433
										CHANNELS 3 Zrotation Xrotation Yrotation
										JOINT RightHandRing2
										{
											OFFSET -5.62556 0.00000 0.00000
											CHANNELS 3 Zrotation Xrotation Yrotation
											JOINT RightHandRing3
											{
												OFFSET -3.56744 0.00000 0.00000
												CHANNELS 3 Zrotation Xrotation Yrotation
												End site
												{
													OFFSET 0.00000 0.00000 0.00000
												}
											}
										}
									}
									JOINT RightHandPinky1
									{
										OFFSET -11.11390 0.00000 -6.03719
										CHANNELS 3 Zrotation Xrotation Yrotation
										JOINT RightHandPinky2
										{
											OFFSET -4.52789 0.00000 0.00000
											CHANNELS 3 Zrotation Xrotation Yrotation
											JOINT RightHandPinky3
											{
												OFFSET -2.46976 0.00000 0.00000
												CHANNELS 3 Zrotation Xrotation Yrotation
												End site
												{
													OFFSET 0.00000 0.00000 0.00000
												}
											}
										}
									}
								}
							}
						}
					}
					JOINT LeftShoulder
					{
						OFFSET 0.01000 7.91373 5.19711
						CHANNELS 3 Zrotation Xrotation Yrotation
						JOINT LeftArm
						{
							OFFSET 18.41580 0.00000 0.00000
							CHANNELS 3 Zrotation Xrotation Yrotation
							JOINT LeftForeArm
							{
								OFFSET 29.11090 0.00000 0.00000
								CHANNELS 3 Zrotation Xrotation Yrotation
								JOINT LeftHand
								{
									OFFSET 24.65040 0.00000 0.00000
									CHANNELS 3 Zrotation Xrotation Yrotation
									JOINT LeftHandThumb1
									{
										OFFSET 5.35114 -0.85590 3.97906
										CHANNELS 3 Zrotation Xrotation Yrotation
										JOINT LeftHandThumb2
										{
											OFFSET 4.52789 0.00000 0.00000
											CHANNELS 3 Zrotation Xrotation Yrotation
											JOINT LeftHandThumb3
											{
												OFFSET 2.46977 0.00000 0.00000
												CHANNELS 3 Zrotation Xrotation Yrotation
												End site
												{
													OFFSET 0.00000 0.00000 0.00000
												}
											}
										}
									}
									JOINT LeftHandIndex1
									{
										OFFSET 14.26970 0.00000 2.88139
										CHANNELS 3 Zrotation Xrotation Yrotation
										JOINT LeftHandIndex2
										{
											OFFSET 5.48836 0.00000 0.00000
											CHANNELS 3 Zrotation Xrotation Yrotation
											JOINT LeftHandIndex3
											{
												OFFSET 3.01859 0.00000 0.00000
												CHANNELS 3 Zrotation Xrotation Yrotation
												End site
												{
													OFFSET 0.00000 0.00000 0.00000
												}
											}
										}
									}
									JOINT LeftHandMiddle1
									{
										OFFSET 14.26970 0.00000 -0.09147
										CHANNELS 3 Zrotation Xrotation Yrotation
										JOINT LeftHandMiddle2
										{
											OFFSET 6.17440 0.00000 0.00000
											CHANNELS 3 Zrotation Xrotation Yrotation
											JOINT LeftHandMiddle3
											{
												OFFSET 3.56744 0.00000 0.00000
												CHANNELS 3 Zrotation Xrotation Yrotation
												End site
												{
													OFFSET 0.00000 0.00000 0.00000
												}
											}
										}
									}
									JOINT LeftHandRing1
									{
										OFFSET 12.69180 0.00000 -3.06433
										CHANNELS 3 Zrotation Xrotation Yrotation
										JOINT LeftHandRing2
										{
											OFFSET 5.62556 0.00000 0.00000
											CHANNELS 3 Zrotation Xrotation Yrotation
											JOINT LeftHandRing3
											{
												OFFSET 3.56744 0.00000 0.00000
												CHANNELS 3 Zrotation Xrotation Yrotation
												End site
												{
													OFFSET 0.00000 0.00000 0.00000
												}
											}
										}
									}
									JOINT LeftHandPinky1
									{
										OFFSET 11.11390 0.00000 -6.03719
										CHANNELS 3 Zrotation Xrotation Yrotation
										JOINT LeftHandPinky2
										{
											OFFSET 4.52789 0.00000 0.00000
											CHANNELS 3 Zrotation Xrotation Yrotation
											JOINT LeftHandPinky3
											{
												OFFSET 2.46976 0.00000 0.00000
												CHANNELS 3 Zrotation Xrotation Yrotation
												End site
												{
													OFFSET 0.00000 0.00000 0.00000
												}
											}
										}
									}
								}
							}
						}
					}
					JOINT pCube4
					{
						OFFSET 0.00000 10.91090 1.10792
						CHANNELS 3 Zrotation Xrotation Yrotation
						End site
						{
							OFFSET 0.00000 0.00000 0.00000
						}
					}
				}
			}
		}
	}
	JOINT RightUpLeg
	{
		OFFSET -9.98441 0.00000 0.00000
		CHANNELS 3 Zrotation Xrotation Yrotation
		JOINT RightLeg
		{
			OFFSET 0.00000 -42.11790 0.00000
			CHANNELS 3 Zrotation Xrotation Yrotation
			JOINT RightFoot
			{
				OFFSET 0.00000 -45.00020 -0.00001
				CHANNELS 3 Zrotation Xrotation Yrotation
				JOINT RightForeFoot
				{
					OFFSET 0.00000 -3.74820 0.00000
					CHANNELS 3 Zrotation Xrotation Yrotation
					JOINT RightToeBase
					{
						OFFSET 0.00000 0.06325 14.43120
						CHANNELS 3 Zrotation Xrotation Yrotation
						End site
						{
							OFFSET 0.00000 0.00000 0.00000
						}
					}
				}
			}
		}
	}
	JOINT LeftUpLeg
	{
		OFFSET 9.98441 0.00000 0.00000
		CHANNELS 3 Zrotation Xrotation Yrotation
		JOINT LeftLeg
		{
			OFFSET 0.00000 -42.11800 0.00000
			CHANNELS 3 Zrotation Xrotation Yrotation
			JOINT LeftFoot
			{
				OFFSET 0.00000 -45.00070 0.00000
				CHANNELS 3 Zrotation Xrotation Yrotation
				JOINT LeftForeFoot
				{
					OFFSET 0.00000 -3.74824 0.00000
					CHANNELS 3 Zrotation Xrotation Yrotation
					JOINT LeftToeBase
					{
						OFFSET 0.00000 0.06325 14.43110
						CHANNELS 3 Zrotation Xrotation Yrotation
						End site
						{
							OFFSET 0.00000 0.00000 0.00000
						}
					}
				}
			}
		}
	}
}
MOTION
Frames: 4
Frame Time: 0.050000
0.03381002029651238 0.004330642314958668 -0.03890770257329505 -0.0018694312000100519 -0.017192452637916935 -0.023432152939119242 -3.208643284717806 8.544327197634715 -0.6778218827473802 -0.8528413709482756 3.1874799837382835 0.4053909351009243 -0.9105950902202987 0.191191148551294 -1.753916425576367 -0.10311486604030887 0.6111231948899698 -1.0893188357358319 -0.5634138357348559 8.79307252228845 0.2718446052883669 -0.29285353111767687 -1.1730882436256056 -2.4882706776052568 -0.20383318912715293 -15.622578063659109 -0.15375176359198583 3.11300549616 0.0209580461862703 -9.83836462931879 60.97651382081172 2.463189603865076 22.136478583982363 6.3908533133927685 4.335536795789897 98.15220473141031 16.17839981796502 -0.3679724015402519 -5.540522357617342 4.523254289005996 -0.08200416393466786 -1.6145822545011874 -0.016418721293727335 0.016341561669991202 -56.22291725468815 0.022758237212061543 0.0025216346426255986 -56.24508650824812 -38.810254023584356 0.0067763684365392774 -0.019184318035079775 0.046846108907827935 0.004087979161679534 0.010442964907614191 0.04490853573275667 0.005021926710990302 -0.03587711047096543 -36.685715529475544 0.044164888765179405 -0.011358734117044321 0.038689215682915834 -0.025617669246780432 -0.011807965122463591 -0.011203875680962925 0.002148758581045227 0.04692128385182438 -19.763465957826284 -0.018972780666390306 -0.03684054395269233 -0.022598822871850083 -0.028320859448452633 -0.00887409907944604 0.006129623977176007 0.0339577275159414 0.0300798439089528 24.027068644786514 0.03676699518359579 -0.03364560893805861 28.842164861458294 -0.01709467258090637 0.007050872267252304 28.897213300917475 -0.0025799420001244443 0.01848621237239748 -0.17356783964778932 0.5151613018133232 8.833269913956753 -54.89748146241407 20.798639784123438 -32.314725518542694 16.33916778331255 -12.54949389405478 -105.62149919533248 -3.1847722953112236 1.8130206723164097 -4.089593146182121 -0.47109826859271736 0.07045103212221157 -8.138153585629302 -0.03517943813600151 0.014618188016398661 44.59891345767339 -0.025426872408021772 0.01670123326436895 44.59452926981768 12.488708818239092 -0.0015229987376650922 0.012475563996333249 -0.029146813106281148 0.027191743924925998 -0.03478803067033129 0.03455446157401486 0.03540877512557462 0.02293894949017089 11.123519365499664 0.03937853034545437 -0.013693531193874037 0.04884395512118715 -0.030990847425357657 0.008538800893618394 -0.019931959990774246 0.02448471937571117 0.004386838533076344 4.7452792225048945 -0.049195953559326926 0.016168320848411556 -0.02715054757391884 -0.009174622333217487 -0.01962621158817873 0.041427619785178504 0.00809821276322657 0.03820838504399288 -5.603813870503275 0.001470464121929292 -0.01825739801526244 -6.739854366111664 -0.03449530539024977 0.02660280034320098 -6.708742349203059 -0.02060211655526848 0.027062503353984822 -0.0034025974001455407 0.04197649885246916 -0.04774514212413029 8.054539015665105 3.527336672133652 -19.181832460333034 -3.461509000199463e-05 10.41432992180641 -0.0017634423103958206 -5.650788427613766 -15.656868681232684 3.1802838560358007 0.008634324292226063 -0.03626177815862272 -0.0290912767459924 -0.015045871969445616 4.648981465011706 0.027166697219795807 12.443562911206998 -8.224654831451327 6.909368489610781 0.03095234455201794 46.41132404848301 0.02015871867878128 -4.283664210860352 -14.752150891387275 -3.8237492863793903 0.0444745445787691 0.007617157668061517 0.042648350438187495 -0.029634206240784607 -10.73259964519692 0.0018859905248652792 
0.005855367452708714 -0.000998194009688447 -0.04883836769542707 0.0449792807218581 -0.04996222501438243 -0.029094677434582085 -3.3091134339897676 8.701163291231303 -0.6447075315150974 -0.7850172116541834 3.173836629818449 0.39004783503857826 -0.9020861894905572 0.2344933592843986 -1.7125874591093413 -0.1736128855275933 0.5820447035228563 -1.047684481194236 -0.5198991489499655 8.82193692775942 0.3234220506918953 -0.30875478887661445 -1.1691203437737157 -2.3708124840012204 -0.22873071950959908 -15.54262135846662 -0.12930267438933396 3.2314161405467017 0.03557265012425301 -9.796084022376622 60.27324151404019 1.829891849599031 22.27469928052047 4.8022874108316005 3.895213188990951 98.4791253304731 16.346133373514203 -0.4147382515926864 -5.278201746593386 4.4888820602205675 -0.12944544155199875 -1.553392907483767 0.010741121285088535 0.04668406729647322 -56.26033476861346 0.04548816409129608 0.042417784162477615 -56.27239129443251 -38.736002827937554 0.012361500651840319 -0.00014698872990062732 -0.021735803107376814 0.03469060844839146 -0.02132159753870918 0.020107794795035543 -0.029521143874553155 -0.02122638261578253 -36.723984955841004 -0.01033568701913088 0.037223900619214885 0.018032209283910135 0.011204396664510854 0.0022867478744220617 -0.02086191205589799 -0.034063381562846974 0.013080589326864156 -19.80465597951413 0.03776555520847494 0.04443060590272932 -0.03644132149264856 -0.02076197444527778 -0.016321566335773224 -0.013097992942268223 0.004383730371835763 0.011273475844453604 24.064607016588777 0.005233964296002339 0.02655081453198218 28.863083732147796 -0.008078353661927159 -0.03306066306027323 28.818776629714538 -0.03912289171737955 0.007568748984247292 -0.29312211493041185 0.5193844139966582 8.779776193635549 -53.816015147559575 20.43856740341065 -32.72688937674963 21.068900053747182 -14.000479272246785 -107.22109622998745 -2.548177513090783 2.3394148069208383 -4.8906603797578265 -0.4357825661596615 0.09209606152728303 -8.172713167470395 -0.04194881019984145 -0.03100847479711998 44.58763553108658 -0.021235768971432964 0.010289044935778783 44.569825861830026 12.422195027587426 -0.0381935101049652 0.0069470064101242604 -0.008437452167507851 0.03209958724997569 0.024781301372999737 -0.03935739412099655 -0.022990030734752476 0.01819951832585831 11.150976180784891 -0.02811221899913903 0.028339177379689315 -0.04069684736604682 0.03296491890874763 -0.01530168319218127 0.0070221920827557086 -0.017047249600901645 -0.019477277474631446 4.764479282148511 0.020099439980374993 0.0285739524324905 -0.0003875936536750896 -0.027217741335431346 0.04386886578783586 -0.0489062786554479 0.029682254892484376 -0.02908861190146787 -5.5816299098163675 0.034181880078439864 0.011724532679875282 -6.713430327032065 0.0252882293253469 -0.032786415591719985 -6.685999363713968 -0.006751298645060024 0.02211384555009702 0.019518997021170957 -0.02620001281193501 -0.006869699329624504 8.002911867031026 3.4634218709334195 -19.191054362004856 -0.01604818608134414 10.381706035044562 -0.007579371549638725 -5.635673435135599 -15.703039286735413 3.21601935905132 -0.039726534073949375 -0.013694161933802202 -0.03412890487652534 0.00886464391036832 4.653636888668476 -0.04497793286276855 12.447609926543715 -8.275043662627102 6.842027182905857 0.041716221691582726 46.33311601834662 0.041161913282909066 -4.359693578186655 -14.766022636385571 -3.8140556913542345 -0.03704470236542779 0.03991686395190579 0.0008755248181827886 -0.018119960749935844 -10.791157052764326 -0.037737380370447236 
-0.008688336086508446 -0.022916831480116126 0.007306238410308981 0.020490288507371758 0.020893420858818304 0.04091464091947381 -3.3888788939775663 8.814497048372537 -0.6948522297438562 -0.8189355179005519 3.1194042331562373 0.3692839635411548 -0.9117557223079391 0.2078893366750232 -1.63766616326954 -0.19734269658112996 0.5481054163564385 -1.0572269965064862 -0.5687693323381067 8.823745760609203 0.39709434976704033 -0.28488109449049126 -1.1411784438213326 -2.419085377682032 -0.23860731579030175 -15.54179209864047 -0.10492873793683143 3.159106803639581 0.0034322589356092018 -9.75468068738458 59.60814558538806 1.3409547279428475 22.41929581458964 3.5803288221525387 3.4009383712244543 98.55758510430276 16.36003058691183 -0.45861894516671464 -4.981652940505201 4.5172748380629155 -0.13903377487805565 -1.5933131394996425 -0.04461921863007695 0.019898277297495742 -56.20087761053426 0.02463919507697477 0.04414372511828097 -56.21431330140958 -38.769225755187 0.020897920549383196 -0.010825004735666494 -0.026316968786627967 -0.02422022436464909 0.019721318311450128 -0.036079568275325075 -0.016356182189364344 0.0072889336312735855 -36.69183849264192 -0.01236025138470804 0.008722707738323916 -0.01078138302253342 0.04721875809517264 -0.02473610010422694 0.023380412635089005 0.023267461469439425 0.033420814492911906 -19.710077063193737 0.031471503624132646 -0.0008751183987897315 -0.013596759146525444 -0.028298816038301297 0.020054878825809263 -0.04656007603706109 0.002374402250593339 -0.033750629161970226 24.070912577083817 0.045274977802719156 -0.017458442685237583 28.902964652133505 -0.027674613884049116 0.005511600652370923 28.855399499975057 -0.0028285957243797764 -0.040177694645871606 -0.22081603484737589 0.5313246139454628 8.848012649719127 -52.78892634301973 20.06110884075851 -32.87429439610391 25.018590925744814 -15.159746258781162 -108.28802503525613 -2.099186381383278 2.7880852585699247 -5.550735764546986 -0.4610525382776437 0.07243941771040172 -8.165744712145445 -0.015957401827738818 0.020219283595915988 44.56370209667744 -0.037090572925619375 0.006821427160465196 44.52817361696704 12.435564189160495 -0.0034960698002356305 -0.043866919494340136 -0.012933546284807808 -0.04063143950496145 -0.025652183305314043 0.005681262989332226 -0.025904193923383344 -0.03502852015227747 11.12311805746241 0.010150690333390019 0.048999202230606664 0.003160279240144966 -0.01088631150905136 -0.014643818400809734 -0.006321833204758017 -0.04906797403542962 -0.02079406408674294 4.802755703548632 -0.012679993270184245 -0.033035065243399095 0.0015432638095007483 0.009661953099624903 -0.002436158480076746 -0.016105366184675687 0.01486575274247167 0.0422304013812678 -5.610282088374867 -0.017156168098286097 0.033465422425021304 -6.736654556817832 0.01413000453210516 -0.005855205489104484 -6.6976059291021475 0.031321439274958306 0.00020655055186385163 -0.010398923399386951 0.0036397915236973505 -0.031107983409971857 8.01653564615198 3.490941692514229 -19.26236239063806 -0.037283424385225764 10.383865208311917 0.050389243951044924 -5.576932923946242 -15.630712290183551 3.158371120397509 -0.04679166820704178 0.03012875285005702 -0.02039398187308484 0.00891885638603907 4.689426574079905 0.027994193627447206 12.5030343819105 -8.271160487278369 6.885142086393133 -0.021704766909512042 46.36061192871371 0.029413142623979593 -4.284387544139955 -14.703711324678508 -3.8607625433127972 -0.013556302912435649 -0.027112816238130433 -0.028080537427644495 -0.006586930539555202 -10.698201650899229 -0.04003494839694097 
-0.015724018713074415 -0.04063441252647146 -0.02931724931834962 -0.029483321648157392 -0.04039269096136409 -0.012451731982964611 -3.3241885275532423 8.810409582551838 -0.6890703329137011 -0.8310363935780949 3.185424615896655 0.38964101447663235 -0.9047375703874929 0.22156422348621505 -1.6797527326515385 -0.2019605014252884 0.5870393409827284 -1.0788940495036217 -0.5428402536327055 8.854500840932387 0.347874128603025 -0.27388320623418383 -1.1013436813098747 -2.4539099470957613 -0.2080494951995332 -15.470557562840055 -0.07942748821724695 3.0608036255304687 0.016083161393363854 -9.749250362011269 59.39176454255807 1.3646813646210385 22.949545456801896 2.828113542696439 3.0853325618590923 98.26937673346292 16.506138819096066 -0.43815823034155077 -4.799768467300072 4.528833463373813 -0.08946155024890456 -1.6264774774942063 -0.001404734531082493 -0.04483343157514652 -56.273538061585505 0.023861192743011093 -0.04198681298695511 -56.24696460062043 -38.7717036015341 -0.02072978542427353 -0.005909204890011032 -0.013712747992857838 0.01944245964669714 -0.013295598481228197 0.001508304886386473 0.015351639640011077 0.04502561866206657 -36.723512138928044 -0.037254640310979116 -0.02556187432477385 0.004303193881544876 0.00802595008368668 -0.03205501075688277 0.046282163173657465 0.005774623283058314 -0.009411931175480854 -19.75728552111688 -0.0038850605878910796 -0.04004064745257402 -0.033333286373095565 0.0313331520543441 -0.0018511886054549864 0.009289235872088686 -0.02705060999758913 0.022431866944927374 24.08127841647005 -0.012938129651081348 0.02538509384570622 28.877387797009575 0.008620809271411465 -0.029190082440268023 28.875852692589536 0.013445111247009206 0.01693977879357952 -0.15430474093955757 0.5219952470160909 8.902609272754827 -52.4634446271719 20.10671968368509 -33.26139683645231 27.029573131885606 -15.733700863392075 -108.40938119157845 -2.004114532162029 3.0548803658698795 -5.941560268267531 -0.4856184260751992 0.08403510611912741 -8.151536621550292 0.014591185060142392 0.008829237455811257 44.54429695195906 -0.00797953562448385 -0.0018532547390641215 44.52626097449427 12.417966887198846 -0.022474644848595498 0.0025756838944734116 -0.04815238720490847 0.010539045644387238 -0.029229958031424013 -0.009466603139764152 -0.03579613602305641 0.04711671213072697 11.101120620565172 -0.043159421678165714 -0.017364321001142678 0.012164472133168798 -0.008133853298510048 0.04505262096888854 -0.03835691948328959 -0.025982043987825196 -0.046296827976755384 4.743468905897157 -0.017599033798415042 0.04903557145327981 -0.04093188674212843 -0.018114993511160703 -0.020515689758428587 -0.03816131557396694 0.009194215332494796 0.03130541910304967 -5.610921901992881 -0.014040581268901594 -0.02347860850811885 -6.732842692973939 0.007878443903153476 -0.030243993182337146 -6.754071855551929 -0.011870506970537946 0.03224207779913069 0.00922690429862046 -0.04515326074204743 0.025700227979676388 8.078449856786007 3.5414912015772058 -19.20030553498273 -0.022145471731260285 10.435960626629884 0.0367736740182556 -5.601829227697013 -15.645576643846992 3.2219976145995064 0.011803228324842438 0.014040095062112899 0.006244238499144094 0.024976884282982253 4.698740578118499 0.031348646590829775 12.451524092574127 -8.21885093353514 6.90662689094834 0.019151626602419064 46.358723260415196 -0.04692967981739604 -4.303623225631745 -14.796143915913072 -3.860149458906294 0.030678100362639158 -0.018313082068422318 -0.047087125651723405 -0.006976234192778731 -10.72576066213758 0.03889881876616619 
